HIERARCHY
ROOT root     
{
	OFFSET 0.0000 0.0000 0.0000
	CHANNELS 6 Xposition Yposition Zposition Zrotation Yrotation Xrotation
	JOINT pelvis   
	{
		OFFSET 0.0000 0.0000 0.0000
		CHANNELS 3 Zrotation Yrotation Xrotation
		JOINT thorax   
		{
			OFFSET 0.0000 23.0750 -5.0000
			CHANNELS 3 Zrotation Yrotation Xrotation
			JOINT rclavicle
			{
				OFFSET 0.0000 28.0009 0.0000
				CHANNELS 3 Zrotation Yrotation Xrotation
				JOINT rhumerus 
				{
					OFFSET -18.5725 5.5939 0.0000
					CHANNELS 3 Zrotation Yrotation Xrotation
					JOINT rradius  
					{
						OFFSET -24.8459 0.0000 0.0000
						CHANNELS 3 Zrotation Yrotation Xrotation
						JOINT rhand    
						{
							OFFSET -24.5477 0.0000 0.0000
							CHANNELS 3 Zrotation Yrotation Xrotation
							End Site
							{
								OFFSET -8.1826 0.0000 0.0000
							}
						}
					}
				}
			}
			JOINT lclavicle
			{
				OFFSET 0.0000 28.0009 0.0000
				CHANNELS 3 Zrotation Yrotation Xrotation
				JOINT lhumerus 
				{
					OFFSET 18.5725 5.5939 0.0000
					CHANNELS 3 Zrotation Yrotation Xrotation
					JOINT lradius  
					{
						OFFSET 24.8459 0.0000 0.0000
						CHANNELS 3 Zrotation Yrotation Xrotation
						JOINT lhand    
						{
							OFFSET 24.5477 0.0000 0.0000
							CHANNELS 3 Zrotation Yrotation Xrotation
							End Site
							{
								OFFSET 8.1826 0.0000 0.0000
							}
						}
					}
				}
			}
			JOINT head     
			{
				OFFSET 0.0000 35.2030 0.0000
				CHANNELS 3 Zrotation Yrotation Xrotation
				End Site
				{
					OFFSET 0.0000 11.7343 0.0000
				}
			}
		}
		JOINT rfemur   
		{
			OFFSET -8.2817 0.0000 0.0000
			CHANNELS 3 Zrotation Yrotation Xrotation
			JOINT rtibia   
			{
				OFFSET 0.0000 -43.3627 0.0000
				CHANNELS 3 Zrotation Yrotation Xrotation
				JOINT rfoot    
				{
					OFFSET 0.0000 -38.2947 0.0000
					CHANNELS 3 Zrotation Yrotation Xrotation
					JOINT rtoes    
					{
						OFFSET 0.0000 0.0000 16.6054
						CHANNELS 3 Zrotation Yrotation Xrotation
						End Site
						{
							OFFSET 0.0000 0.0000 5.5351
						}
					}
				}
			}
		}
		JOINT lfemur   
		{
			OFFSET 8.2817 0.0000 0.0000
			CHANNELS 3 Zrotation Yrotation Xrotation
			JOINT ltibia   
			{
				OFFSET 0.0000 -43.3627 0.0000
				CHANNELS 3 Zrotation Yrotation Xrotation
				JOINT lfoot    
				{
					OFFSET 0.0000 -38.2947 0.0000
					CHANNELS 3 Zrotation Yrotation Xrotation
					JOINT ltoes    
					{
						OFFSET 0.0000 0.0000 16.6054
						CHANNELS 3 Zrotation Yrotation Xrotation
						End Site
						{
							OFFSET 0.0000 0.0000 5.5351
						}
					}
				}
			}
		}
	}
}
MOTION
Frames: 11
Frame Time: .0333333
3.3079 75.199 7.7614 -172.029 -82.7217 -165.402 0 -0 0 -6.80831 9.90796 22.7108 14.1523 -2.50558 -5.15287e-06 69.3121 -8.67461 15.9246 -180 81.9099 -180 -9.63915 10.0635 -0.850701 -20.8713 17.1409 -0.000141674 -54.0718 21.4894 16.9179 -180 -76.9673 180 13.7441 -0.489502 -0.0590009 -5.57345 -4.16985 -12.6057 -4.85847 -9.31238 -33.2906 -0 -0 88.3606 -2.00402e-09 -1.75927 -0.00780007 0.000200001 -1.12114e-09 -55.2842 -9.91252 7.77868 -62.3884 -0 -0 59.8496 -2.06377e-05 11.8277 -9.75776 -2.03268 9.12836e-06 -17.5397 
2.1537 74.772 7.6994 -172.636 -82.6367 -165.2 0 -0 0 -7.19091 9.61752 23.391 14.5251 -2.26384 1.5245e-05 70.0315 -9.02542 15.1941 -180 84.4119 -180 -11.1274 9.91214 -0.967908 -21.4101 16.3768 -7.53073e-05 -54.1529 18.4162 16.3249 -180 -77.6775 180 14.4586 -0.277104 -0.0350995 -5.44 -3.89011 -12.2862 -5.22734 -9.20172 -33.9234 -0 -0 89.5334 1.41427e-08 -2.01601 -0.526203 0.0185003 -1.10008e-08 -54.2153 -10.009 8.00386 -62.021 -0 -0 61.7204 -2.98996e-05 12.1951 -11.6758 -2.5043 1.28135e-05 -17.9155 
1.0043 74.399 7.6389 -173.106 -82.6164 -165.123 0 -0 0 -7.53426 9.24078 24.0027 14.8493 -2.08112 -1.11263e-05 70.6335 -9.36236 14.5769 -180 87.0747 -180 -12.8108 9.64468 -1.08531 -21.8563 15.6607 9.31716e-05 -54.2024 15.2278 15.7903 180 -78.5088 -180 15.0511 -0.0458002 -0.0060998 -5.24247 -3.59993 -11.8076 -5.50757 -9.15836 -34.6099 -0 -0 90.5572 4.26628e-07 -2.32706 -1.10289 0.0448004 6.73569e-07 -52.9879 -10.0336 8.1343 -61.5022 -0 -0 63.3108 -4.20591e-05 12.5669 -13.4918 -2.97725 -7.85708e-06 -18.6024 
-0.1375 74.076 7.5794 -173.348 -82.6628 -165.252 0 -0 0 -7.82214 8.76872 24.5306 15.1103 -1.97041 2.65898e-07 71.0986 -9.7074 14.1009 -180 89.7841 -180 -14.5982 9.24723 -1.18695 -22.207 15.0126 1.74119e-05 -54.2434 11.9869 15.3074 -180 -79.394 180 15.5322 0.191605 0.0260992 -4.9914 -3.29687 -11.1995 -5.68089 -9.18559 -35.3648 -0 -0 91.4393 2.29023e-07 -2.66719 -1.73204 0.080699 -1.8408e-07 -51.6107 -9.97639 8.16329 -60.8647 -0 -0 64.6474 8.2077e-05 12.9262 -15.1539 -3.43342 4.70696e-06 -19.4843 
-1.2689 73.803 7.52 -173.276 -82.7767 -165.659 0 -0 0 -8.04096 8.19684 24.9636 15.3045 -1.93084 1.02797e-05 71.4135 -10.098 13.773 -1.29035e-05 87.4135 -1.30598e-05 -16.3755 8.72876 -1.25835 -22.4602 14.416 -7.76401e-05 -54.2988 8.79933 14.8481 180 -80.2621 180 15.9119 0.417798 0.0583981 -4.70207 -2.9779 -10.4921 -5.73267 -9.28218 -36.201 -0 -0 92.1844 2.2593e-06 -3.01212 -2.40196 0.1264 4.6295e-08 -50.1214 -9.83537 8.09267 -60.1471 -0 -0 65.7576 2.88273e-05 13.2596 -16.6313 -3.85848 1.65894e-05 -20.4358 
-2.3874 73.575 7.4597 -172.83 -82.9501 -166.397 0 -0 0 -8.18316 7.52596 25.3019 15.4294 -1.97635 9.21411e-06 71.5604 -10.5545 13.6133 -3.17662e-06 84.8026 -3.47877e-06 -18.0379 8.12241 -1.29129 -22.6026 13.8969 -5.46588e-05 -54.3891 5.70241 14.4203 180 -81.0586 180 16.2043 0.623701 0.0888029 -4.39146 -2.63877 -9.73064 -5.65497 -9.44142 -37.1284 -0 -0 92.7968 1.21239e-06 -3.3394 -3.09704 0.180604 9.08734e-07 -48.5696 -9.6131 7.93102 -59.3826 -0 -0 66.6788 0.000165784 13.559 -17.9112 -4.24212 -2.85501e-05 -21.3451 
-3.4914 73.39 7.3977 -171.96 -83.1769 -167.508 0 -0 0 -8.24651 6.76321 25.5439 15.4899 -2.08568 1.52017e-06 71.5365 -11.131 13.6003 -4.32463e-06 82.4 -4.48124e-06 -19.4864 7.48519 -1.28704 -22.6275 13.3972 -8.62278e-05 -54.533 2.83139 13.9715 -180 -81.6838 180 16.4095 0.792596 0.114297 -4.07877 -2.27569 -8.95178 -5.4466 -9.65207 -38.1476 -0 -0 93.2737 -2.34052e-06 -3.63275 -3.79775 0.240902 1.61356e-07 -47.0245 -9.3208 7.69809 -58.5963 -0 -0 67.444 1.48693e-07 13.8258 -18.9978 -4.58027 2.96145e-05 -22.1171 
-4.5805 73.247 7.3329 -170.638 -83.4328 -169.024 0 -0 0 -8.23624 5.91969 25.703 15.4904 -2.26531 2.19503e-06 71.3313 -11.8439 13.7404 -0 80.3362 -0 -20.6629 6.88186 -1.25599 -22.5225 12.942 6.22338e-05 -54.7376 0.190411 13.5197 180 -82.1058 180 16.5385 0.924201 0.134304 -3.78129 -1.88365 -8.19864 -5.1125 -9.89914 -39.26 -0 -0 93.6137 -1.47245e-06 -3.88149 -4.48449 0.304 6.42629e-06 -45.5585 -8.97233 7.41676 -57.8048 -0 -0 68.0795 -0.000105741 14.0594 -19.9127 -4.87486 -4.3405e-06 -22.71 
-5.6552 73.146 7.2647 -168.871 -83.7151 -170.939 0 -0 0 -8.16418 5.01147 25.7913 15.4422 -2.50335 1.31572e-05 70.9475 -12.7183 14.0166 -0 78.6718 -0 -21.5353 6.37817 -1.21416 -22.2793 12.5217 -6.38102e-05 -54.9981 -2.18202 13.0538 -180 -82.2728 180 16.5875 1.01639 0.148207 -3.51384 -1.4582 -7.5023 -4.66441 -10.1658 -40.4533 -0 -0 93.8069 -2.49412e-07 -4.08224 -5.1379 0.366193 -4.73194e-06 -44.2448 -8.58647 7.11467 -57.0149 -0 -0 68.604 -8.73578e-05 14.2666 -20.6857 -5.13249 -1.4175e-06 -23.1103 
-6.7175 73.088 7.1926 -166.716 -83.9875 -173.207 0 -0 0 -8.0464 4.05689 25.8282 15.3564 -2.79386 2.12563e-05 70.3868 -13.7602 14.4111 -0 77.4717 -0 -22.1055 6.02647 -1.17818 -21.9006 12.1473 4.20245e-05 -55.2934 -4.29893 12.5813 180 -82.1779 -180 16.5541 1.0736 0.156202 -3.28755 -0.995901 -6.88519 -4.11968 -10.4336 -41.7122 -0 -0 93.8429 -2.42591e-06 -4.23699 -5.74088 0.424605 4.11911e-06 -43.1469 -8.18368 6.8207 -56.2198 -0 -0 69.0255 7.77719e-05 14.456 -21.3528 -5.3626 -1.42483e-05 -23.3432 
-7.7702 73.073 7.117 -164.293 -84.2333 -175.719 0 -0 0 -7.90471 3.07642 25.8294 15.2441 -3.12554 -2.23209e-06 69.6621 -14.9674 14.9007 -2.4498e-06 76.7567 -2.60709e-06 -22.3903 5.86252 -1.16126 -21.3891 11.8074 5.63869e-05 -55.5977 -6.15055 12.0878 180 -81.8171 180 16.4304 1.099 0.1587 -3.1079 -0.4957 -6.35503 -3.50148 -10.686 -43.0155 -0 -0 93.7127 -1.69959e-06 -4.35209 -6.27981 0.477012 -2.27304e-06 -42.3022 -7.7853 6.55931 -55.4069 -0 -0 69.3407 3.65767e-05 14.6376 -21.9502 -5.57605 1.6747e-05 -23.4541 
